#!OML:ASF H:\BabyWalks\Project 1\Capture day 1\Session 1\baby.ASF
:FULLY-SPECIFIED
:DEGREES
463
root -8.56221 17.5685 -0.392069 389.005 -77.3329 -390.925
lowerback 14.6642 2.78121 3.90014
upperback 2.30415 4.07986 -1.6705
thorax -5.35732 1.87919 -4.73242
lowerneck -2.64955 13.752 12.1949
upperneck 18.7766 19.3107 -9.8597
head 8.43219 9.23165 -3.34339
rclavicle 7.37491e-014 7.95139e-015
rhumerus -46.198 -9.66064 -70.8454
rradius 47.3343
rwrist 8.22262
rhand -11.125 -19.755
rfingers 7.12502
rthumb 14.9001 -49.1992
lclavicle 7.37491e-014 7.95139e-015
lhumerus -44.3695 -20.7523 81.2173
lradius 88.9885
lwrist 20.8952
lhand 7.18688 17.3831
lfingers 7.12502
lthumb 32.4536 44.497
rfemur -2.83441 -4.39611 27.1438
rtibia 28.3105
rfoot -21.4517 -17.5849
rtoes 6.44974
lfemur -15.2667 6.00217 -10.5291
ltibia 38.2571
lfoot -22.0002 4.51278
ltoes -1.24352
464
root -8.56162 17.5724 -0.346811 389.771 -77.188 -391.69
lowerback 14.8116 2.81103 3.53859
upperback 2.43292 4.06363 -1.5949
thorax -5.33436 1.87805 -4.44938
lowerneck -3.06601 13.3513 12.0924
upperneck 19.2108 18.7104 -9.65111
head 8.54799 8.93016 -3.31229
rclavicle -5.78463e-014 5.88403e-014
rhumerus -46.0744 -10.3232 -70.395
rradius 46.9508
rwrist 9.07846
rhand -10.9733 -19.5526
rfingers 7.12502
rthumb 15.0462 -48.9859
lclavicle -5.78463e-014 5.88403e-014
lhumerus -44.3765 -20.9523 81.5344
lradius 88.7199
lwrist 18.725
lhand 6.74208 16.2739
lfingers 7.12502
lthumb 32.0302 43.4738
rfemur -3.21386 -5.21051 27.0226
rtibia 29.0304
rfoot -21.1625 -16.6971
rtoes 5.23726
lfemur -15.2719 5.73421 -10.505
ltibia 38.2082
lfoot -21.837 4.69789
ltoes -0.572722
465
root -8.55761 17.5785 -0.302458 390.687 -77.055 -392.599
lowerback 14.9832 2.84768 3.19154
upperback 2.56932 4.05788 -1.51772
thorax -5.31426 1.88103 -4.17619
lowerneck -3.48174 12.9493 11.9769
upperneck 19.6 18.11 -9.46591
head 8.65194 8.62838 -3.28817
rclavicle 8.0309e-014 -1.74931e-014
rhumerus -45.9288 -10.9293 -69.9885
rradius 46.6076
rwrist 9.92506
rhand -10.7621 -19.3278
rfingers 7.12502
rthumb 15.2497 -48.7457
lclavicle 8.0309e-014 -1.74931e-014
lhumerus -44.3181 -21.0891 81.8202
lradius 88.3361
lwrist 16.5792
lhand 6.26472 15.1744
lfingers 7.12502
lthumb 31.5755 42.4645
rfemur -3.72914 -6.21376 26.8766
rtibia 29.9598
rfoot -20.7554 -15.5459
rtoes 3.75519
lfemur -15.3075 5.53105 -10.4485
ltibia 38.1769
lfoot -21.6727 4.85346
ltoes -0.0481683
466
root -8.55009 17.5867 -0.258338 391.819 -76.9259 -393.722
lowerback 15.1905 2.8868 2.89219
upperback 2.70289 4.06252 -1.44068
thorax -5.31221 1.8871 -3.93462
lowerneck -3.89401 12.5496 11.8426
upperneck 19.9572 17.5114 -9.28005
head 8.74512 8.32835 -3.26198
rclavicle -9.34288e-015 1.90833e-014
rhumerus -45.7742 -11.4795 -69.6297
rradius 46.3053
rwrist 10.7388
rhand -10.4929 -19.1025
rfingers 7.12502
rthumb 15.5089 -48.5005
lclavicle -9.34288e-015 1.90833e-014
lhumerus -44.2124 -21.157 82.0647
lradius 87.8349
lwrist 14.4442
lhand 5.76932 14.0984
lfingers 7.12502
lthumb 31.1035 41.4801
rfemur -4.39125 -7.41597 26.7174
rtibia 31.1226
rfoot -20.2074 -14.0933
rtoes 2.04259
lfemur -15.3682 5.37955 -10.3474
ltibia 38.1566
lfoot -21.5153 5.03005
ltoes 0.207526
467
root -8.53878 17.5969 -0.213162 393.185 -76.7941 -395.076
lowerback 15.4343 2.92281 2.66459
upperback 2.83037 4.07396 -1.36571
thorax -5.33039 1.89422 -3.7397
lowerneck -4.28943 12.156 11.6999
upperneck 20.2777 16.9214 -9.09868
head 8.82591 8.03397 -3.23665
rclavicle -1.07344e-014 -6.36111e-015
rhumerus -45.6115 -11.9755 -69.318
rradius 46.0454
rwrist 11.4976
rhand -10.2273 -18.8876
rfingers 7.12502
rthumb 15.7647 -48.2656
lclavicle -1.07344e-014 -6.36111e-015
lhumerus -44.0745 -21.141 82.2604
lradius 87.2302
lwrist 12.3298
lhand 5.29159 13.0826
lfingers 7.12502
lthumb 30.6481 40.5506
rfemur -5.21147 -8.8108 26.5439
rtibia 32.5387
rfoot -19.4877 -12.3111
rtoes 0.164203
lfemur -15.4477 5.27865 -10.2007
ltibia 38.1447
lfoot -21.3743 5.25475
ltoes 0.254502
468
root -8.52381 17.6086 -0.165891 394.774 -76.6546 -396.654
lowerback 15.7222 2.95039 2.52505
upperback 2.94821 4.08814 -1.29551
thorax -5.3757 1.90011 -3.60331
lowerneck -4.65961 11.7743 11.5459
upperneck 20.563 16.3474 -8.91094
head 8.8927 7.74943 -3.20736
rclavicle -7.35503e-014 2.38542e-014
rhumerus -45.4435 -12.4095 -69.0537
rradius 45.828
rwrist 12.1818
rhand -9.95421 -18.6997
rfingers 7.12502
rthumb 16.0277 -48.0568
lclavicle -7.35503e-014 2.38542e-014
lhumerus -43.9131 -21.0303 82.4029
lradius 86.5262
lwrist 10.2559
lhand 4.84059 12.1505
lfingers 7.12502
lthumb 30.2179 39.6981
rfemur -6.19205 -10.3686 26.3534
rtibia 34.2265
rfoot -18.5646 -10.1955
rtoes -1.77413
lfemur -15.5285 5.21984 -10.0084
ltibia 38.1357
lfoot -21.2565 5.50125
ltoes 0.215775
469
root -8.50528 17.621 -0.115773 396.54 -76.5145 -398.412
lowerback 16.03 2.96759 2.45849
upperback 3.07238 4.09958 -1.2276
thorax -5.4195 1.90325 -3.51087
lowerneck -5.02176 11.4118 11.3789
upperneck 20.8146 15.8021 -8.73195
head 8.95169 7.47854 -3.17586
rclavicle 1.74931e-014 3.18055e-015
rhumerus -45.2377 -12.7754 -68.8344
rradius 45.6549
rwrist 12.7768
rhand -9.7031 -18.5405
rfingers 7.12502
rthumb 16.2695 -47.8779
lclavicle 1.74931e-014 3.18055e-015
lhumerus -43.7093 -20.8015 82.4885
lradius 85.7346
lwrist 8.27752
lhand 4.40923 11.3223
lfingers 7.12502
lthumb 29.8063 38.9444
rfemur -7.34327 -12.0397 26.1337
rtibia 36.2006
rfoot -17.3757 -7.77736
rtoes -3.6501
lfemur -15.6012 5.20395 -9.78293
ltibia 38.1215
lfoot -21.1711 5.7316
ltoes 0.166125
470
root -8.48385 17.6336 -0.0624333 398.392 -76.3838 -400.261
lowerback 16.3585 2.97675 2.44373
upperback 3.20185 4.10801 -1.16664
thorax -5.46429 1.90371 -3.45539
lowerneck -5.37112 11.0674 11.2016
upperneck 21.0352 15.2847 -8.56079
head 9.00287 7.22111 -3.14249
rclavicle 4.13472e-014 -7.95139e-015
rhumerus -45.0035 -13.07 -68.6516
rradius 45.5388
rwrist 13.2735
rhand -9.49266 -18.409
rfingers 7.12502
rthumb 16.4722 -47.7297
lclavicle 4.13472e-014 -7.95139e-015
lhumerus -43.474 -20.4582 82.5246
lradius 84.8753
lwrist 6.45621
lhand 4.00262 10.6461
lfingers 7.12502
lthumb 29.4182 38.3372
rfemur -8.664 -13.7711 25.8651
rtibia 38.465
rfoot -15.8458 -5.13633
rtoes -5.35263
lfemur -15.6517 5.2307 -9.54676
ltibia 38.0906
lfoot -21.1029 5.93353
ltoes 0.183955
471
root -8.46003 17.6462 -0.00584237 400.185 -76.2885 -402.05
lowerback 16.6996 2.9809 2.43109
upperback 3.33348 4.10849 -1.12298
thorax -5.51216 1.89977 -3.41851
lowerneck -5.69478 10.7451 11.0253
upperneck 21.2215 14.8024 -8.40724
head 9.04504 6.98073 -3.11196
rclavicle 8.62725e-014 3.18055e-015
rhumerus -44.7477 -13.2869 -68.5
rradius 45.4956
rwrist 13.6644
rhand -9.3049 -18.3021
rfingers 7.12502
rthumb 16.6529 -47.6077
lclavicle 8.62725e-014 3.18055e-015
lhumerus -43.2171 -20.0049 82.5167
lradius 83.9659
lwrist 4.89416
lhand 3.57114 10.0948
lfingers 7.12502
lthumb 29.0062 37.8575
rfemur -10.1596 -15.5186 25.5108
rtibia 41.0148
rfoot -13.8907 -2.37335
rtoes -6.58057
lfemur -15.6777 5.31159 -9.34856
ltibia 38.0257
lfoot -21.0439 6.07295
ltoes 0.274438
472
root -8.43496 17.6588 0.0531184 401.873 -76.2397 -403.736
lowerback 17.0503 2.98399 2.38453
upperback 3.46785 4.09993 -1.09396
thorax -5.56371 1.89141 -3.37662
lowerneck -6.0008 10.4455 10.847
upperneck 21.3897 14.3555 -8.26428
head 9.08414 6.75719 -3.08085
rclavicle -3.29983e-014 -3.18055e-015
rhumerus -44.4775 -13.4191 -68.3725
rradius 45.5375
rwrist 13.9451
rhand -9.15757 -18.2026
rfingers 7.12502
rthumb 16.7948 -47.4962
lclavicle -3.29983e-014 -3.18055e-015
lhumerus -42.9521 -19.4512 82.4733
lradius 83.0359
lwrist 3.66338
lhand 3.11605 9.70529
lfingers 7.12502
lthumb 28.5714 37.5419
rfemur -11.8149 -17.2348 25.0709
rtibia 43.836
rfoot -11.4661 0.328727
rtoes -7.06418
lfemur -15.6602 5.46411 -9.20118
ltibia 37.9042
lfoot -20.9837 6.12372
ltoes 0.455222
473
root -8.40955 17.6719 0.113796 403.372 -76.2528 -405.24
lowerback 17.4125 2.9891 2.27046
upperback 3.60064 4.07976 -1.08506
thorax -5.62664 1.87762 -3.3163
lowerneck -6.27403 10.1641 10.6779
upperneck 21.5355 13.9391 -8.14119
head 9.11665 6.54858 -3.05549
rclavicle 6.16232e-014 -1.59028e-015
rhumerus -44.2143 -13.4699 -68.2633
rradius 45.6859
rwrist 14.1257
rhand -9.01474 -18.1145
rfingers 7.12502
rthumb 16.9323 -47.3964
lclavicle 6.16232e-014 -1.59028e-015
lhumerus -42.6879 -18.8132 82.3987
lradius 82.1014
lwrist 2.81319
lhand 2.6566 9.48524
lfingers 7.12502
lthumb 28.1324 37.3949
rfemur -13.6084 -18.8991 24.5338
rtibia 46.9095
rfoot -8.63037 2.76829
rtoes -6.83022
lfemur -15.5814 5.69524 -9.13329
ltibia 37.7024
lfoot -20.9096 6.07947
ltoes 0.702629
